<svg width="25" height="26" viewBox="0 0 25 26" fill="none" xmlns="http://www.w3.org/2000/svg">
<g clip-path="url(#clip0_1_1860)">
<path d="M24.291 13C24.291 6.33753 18.89 0.936523 12.2276 0.936523C5.56507 0.936523 0.164062 6.33753 0.164062 13C0.164062 19.0212 4.57548 24.012 10.3426 24.917V16.4871H7.27964V13H10.3426V10.3423C10.3426 7.31886 12.1437 5.64882 14.8992 5.64882C16.2186 5.64882 17.5996 5.88444 17.5996 5.88444V8.85319H16.0784C14.5799 8.85319 14.1125 9.78316 14.1125 10.7381V13H17.4582L16.9234 16.4871H14.1125V24.917C19.8796 24.012 24.291 19.0212 24.291 13Z" fill="white"/>
</g>
<defs>
<clipPath id="clip0_1_1860">
<rect width="24.127" height="24.127" fill="white" transform="translate(0.164062 0.936523)"/>
</clipPath>
</defs>
</svg>
