<svg width="25" height="26" viewBox="0 0 25 26" fill="none" xmlns="http://www.w3.org/2000/svg">
<g clip-path="url(#clip0_1_1862)">
<path d="M12.5186 3.10889C15.7418 3.10889 16.1235 3.12303 17.3911 3.17958C18.5692 3.23141 19.2053 3.42933 19.6294 3.59426C20.1902 3.81103 20.5955 4.07492 21.0149 4.49431C21.439 4.91842 21.6981 5.31896 21.9149 5.87973C22.0798 6.30384 22.2778 6.94471 22.3296 8.11807C22.3861 9.39039 22.4003 9.77209 22.4003 12.9906C22.4003 16.2138 22.3861 16.5955 22.3296 17.8631C22.2778 19.0412 22.0798 19.6774 21.9149 20.1015C21.6981 20.6622 21.4342 21.0675 21.0149 21.4869C20.5907 21.911 20.1902 22.1702 19.6294 22.3869C19.2053 22.5519 18.5645 22.7498 17.3911 22.8016C16.1188 22.8582 15.7371 22.8723 12.5186 22.8723C9.29536 22.8723 8.91366 22.8582 7.64605 22.8016C6.46798 22.7498 5.83182 22.5519 5.40771 22.3869C4.84694 22.1702 4.44169 21.9063 4.02229 21.4869C3.59818 21.0628 3.33901 20.6622 3.12224 20.1015C2.95731 19.6774 2.75939 19.0365 2.70756 17.8631C2.65101 16.5908 2.63687 16.2091 2.63687 12.9906C2.63687 9.76738 2.65101 9.38568 2.70756 8.11807C2.75939 6.94 2.95731 6.30384 3.12224 5.87973C3.33901 5.31896 3.6029 4.91371 4.02229 4.49431C4.4464 4.0702 4.84694 3.81103 5.40771 3.59426C5.83182 3.42933 6.47269 3.23141 7.64605 3.17958C8.91366 3.12303 9.29536 3.10889 12.5186 3.10889ZM12.5186 0.936523C9.24352 0.936523 8.83355 0.95066 7.54709 1.00721C6.26535 1.06376 5.38415 1.2711 4.62075 1.56797C3.82437 1.87898 3.15052 2.28895 2.48137 2.96281C1.80751 3.63196 1.39754 4.30582 1.08653 5.09749C0.789652 5.86559 0.58231 6.74208 0.525763 8.02383C0.469215 9.315 0.455078 9.72497 0.455078 13C0.455078 16.2751 0.469215 16.685 0.525763 17.9715C0.58231 19.2532 0.789652 20.1344 1.08653 20.8978C1.39754 21.6942 1.80751 22.3681 2.48137 23.0372C3.15052 23.7064 3.82437 24.121 4.61604 24.4273C5.38415 24.7242 6.26063 24.9316 7.54238 24.9881C8.82884 25.0447 9.23881 25.0588 12.5139 25.0588C15.7889 25.0588 16.1989 25.0447 17.4853 24.9881C18.7671 24.9316 19.6483 24.7242 20.4117 24.4273C21.2033 24.121 21.8772 23.7064 22.5464 23.0372C23.2155 22.3681 23.6302 21.6942 23.9365 20.9025C24.2334 20.1344 24.4407 19.258 24.4972 17.9762C24.5538 16.6897 24.5679 16.2798 24.5679 13.0047C24.5679 9.72968 24.5538 9.31971 24.4972 8.03325C24.4407 6.7515 24.2334 5.8703 23.9365 5.10691C23.6396 4.30582 23.2296 3.63196 22.5558 2.96281C21.8866 2.29367 21.2128 1.87898 20.4211 1.57268C19.653 1.27581 18.7765 1.06847 17.4948 1.01192C16.2036 0.95066 15.7936 0.936523 12.5186 0.936523Z" fill="white"/>
<path d="M12.5189 6.80273C9.09781 6.80273 6.32227 9.57828 6.32227 12.9994C6.32227 16.4205 9.09781 19.1961 12.5189 19.1961C15.9401 19.1961 18.7156 16.4205 18.7156 12.9994C18.7156 9.57828 15.9401 6.80273 12.5189 6.80273ZM12.5189 17.019C10.2994 17.019 8.49935 15.2189 8.49935 12.9994C8.49935 10.7799 10.2994 8.97982 12.5189 8.97982C14.7384 8.97982 16.5385 10.7799 16.5385 12.9994C16.5385 15.2189 14.7384 17.019 12.5189 17.019Z" fill="white"/>
<path d="M20.4069 6.55801C20.4069 7.3591 19.7566 8.00468 18.9602 8.00468C18.1591 8.00468 17.5135 7.35439 17.5135 6.55801C17.5135 5.75691 18.1638 5.11133 18.9602 5.11133C19.7566 5.11133 20.4069 5.76163 20.4069 6.55801Z" fill="white"/>
</g>
<defs>
<clipPath id="clip0_1_1862">
<rect width="24.127" height="24.127" fill="white" transform="translate(0.455078 0.936523)"/>
</clipPath>
</defs>
</svg>
