<svg width="44" height="44" viewBox="0 0 44 44" fill="none" xmlns="http://www.w3.org/2000/svg">
<rect width="44" height="44" rx="22" fill="white" fill-opacity="0.07"/>
<path d="M31.9999 26.9201V29.9201C32.001 30.1986 31.944 30.4742 31.8324 30.7294C31.7208 30.9846 31.5572 31.2137 31.352 31.4019C31.1468 31.5902 30.9045 31.7336 30.6407 31.8228C30.3768 31.912 30.0973 31.9451 29.8199 31.9201C26.7427 31.5857 23.7869 30.5342 21.1899 28.8501C18.7738 27.3147 16.7253 25.2663 15.1899 22.8501C13.4999 20.2413 12.4482 17.2711 12.1199 14.1801C12.0949 13.9036 12.1278 13.6249 12.2164 13.3617C12.3051 13.0986 12.4475 12.8568 12.6347 12.6517C12.8219 12.4466 13.0497 12.2828 13.3037 12.1706C13.5577 12.0584 13.8323 12.0004 14.1099 12.0001H17.1099C17.5952 11.9953 18.0657 12.1672 18.4337 12.4836C18.8017 12.8001 19.042 13.2395 19.1099 13.7201C19.2365 14.6802 19.4714 15.6228 19.8099 16.5301C19.9445 16.888 19.9736 17.277 19.8938 17.651C19.8141 18.0249 19.6288 18.3682 19.3599 18.6401L18.0899 19.9101C19.5135 22.4136 21.5864 24.4865 24.0899 25.9101L25.3599 24.6401C25.6318 24.3712 25.9751 24.1859 26.349 24.1062C26.723 24.0264 27.112 24.0555 27.4699 24.1901C28.3772 24.5286 29.3198 24.7635 30.2799 24.8901C30.7657 24.9586 31.2093 25.2033 31.5264 25.5776C31.8436 25.9519 32.0121 26.4297 31.9999 26.9201Z" stroke="#EEF0F3" stroke-width="2" stroke-linecap="round" stroke-linejoin="round"/>
</svg>
