<svg width="100" height="100" viewBox="0 0 100 100" fill="none" xmlns="http://www.w3.org/2000/svg">
<path d="M49.9212 14.5276C30.2505 14.5276 14.3021 30.4761 14.3021 50.1468C14.3021 69.8175 30.2505 85.766 49.9212 85.766C69.592 85.766 85.5404 69.8175 85.5404 50.1468C85.5404 30.4761 69.5956 14.5276 49.9212 14.5276ZM49.5991 84.3594C37.2512 84.3594 27.2405 74.3486 27.2405 62.0007C27.2405 57.5555 28.5361 53.4145 30.7731 49.9356C28.6435 46.5283 27.4123 42.4982 27.4123 38.1854C27.4123 25.9234 37.3515 15.9843 49.6134 15.9843C61.8754 15.9843 71.8182 25.9234 71.8182 38.1854C71.8182 42.509 70.5834 46.5462 68.4431 49.9607C70.6693 53.436 71.9578 57.5662 71.9578 62.0007C71.9578 74.3486 61.947 84.3594 49.5991 84.3594Z" fill="#6C8DAB"/>
<path d="M68.4431 49.9606C64.5168 56.2241 57.5519 60.3901 49.6134 60.3901C41.675 60.3901 34.6922 56.2133 30.7731 49.9356C34.7494 43.7437 41.6965 39.6421 49.5991 39.6421C57.5018 39.6421 64.4703 43.7545 68.4431 49.9606Z" fill="#6C8DAB"/>
</svg>
