<svg width="26" height="26" viewBox="0 0 26 26" fill="none" xmlns="http://www.w3.org/2000/svg">
<path d="M19.5888 9.31081L13.4983 15.3051C13.3654 15.4366 13.186 15.5103 12.9991 15.5103C12.8122 15.5103 12.6328 15.4366 12.4999 15.3051L6.4094 9.31211C6.27569 9.18071 6.09572 9.10709 5.90825 9.10709C5.72078 9.10709 5.54081 9.18071 5.4071 9.31211C5.34126 9.3763 5.28893 9.45302 5.2532 9.53775C5.21747 9.62248 5.19907 9.71351 5.19907 9.80546C5.19907 9.89742 5.21747 9.98844 5.2532 10.0732C5.28893 10.1579 5.34126 10.2346 5.4071 10.2988L11.4963 16.2918C11.8974 16.6856 12.437 16.9062 12.9991 16.9062C13.5612 16.9062 14.1008 16.6856 14.5019 16.2918L20.5911 10.2988C20.6571 10.2346 20.7096 10.1578 20.7455 10.0729C20.7813 9.9881 20.7998 9.89692 20.7998 9.80481C20.7998 9.7127 20.7813 9.62152 20.7455 9.53667C20.7096 9.45182 20.6571 9.37502 20.5911 9.31081C20.4574 9.17941 20.2774 9.10579 20.09 9.10579C19.9025 9.10579 19.7225 9.17941 19.5888 9.31081Z" fill="white"/>
</svg>
