<svg width="182" height="62" viewBox="0 0 182 62" fill="none" xmlns="http://www.w3.org/2000/svg">
<path fill-rule="evenodd" clip-rule="evenodd" d="M14.8203 11.0977C18.7143 4.69049 25.7626 0.311523 33.5349 0.311523C41.2915 0.311523 47.7231 4.6749 50.7039 11.0977H63.6619L54.8235 30.5107H49.3134C45.4194 36.918 38.37 41.2969 30.5977 41.2969C22.8411 41.2969 16.4106 36.9335 13.4288 30.5107H0.470703L9.31022 11.0977H14.8203ZM33.5349 1.69037C26.1663 1.69037 19.4428 5.92382 15.8197 12.1323L15.6188 12.4766H10.2088L2.62497 29.1319H14.338L14.5192 29.5483C17.1973 35.7032 23.2415 39.9181 30.5977 39.9181C37.9664 39.9181 44.691 35.6846 48.314 29.4761L48.5149 29.1319H53.9249L61.5077 12.4766H49.7946L49.6134 12.0601C46.9363 5.90528 40.8912 1.69037 33.5349 1.69037Z" fill="#C6C6C6"/>
<path fill-rule="evenodd" clip-rule="evenodd" d="M62.5848 11.7872H50.2523C47.4675 5.38481 41.1746 1.00098 33.5349 1.00098C25.8952 1.00098 18.9531 5.38587 15.2175 11.7872H9.75952L1.54785 29.8213H13.8804C16.6662 36.2237 22.9581 40.6075 30.5977 40.6075C38.2374 40.6075 45.1806 36.2226 48.9162 29.8213H54.3742L62.5848 11.7872Z" fill="white"/>
<path fill-rule="evenodd" clip-rule="evenodd" d="M54.7058 13.377L52.1098 18.7722H47.5705L50.1642 13.377H45.1141L39.3921 25.2777C39.1345 24.143 38.672 23.0529 38.1483 22.0617C37.1138 20.1058 35.4032 18.1585 35.0373 15.805C34.696 13.6131 36.0664 12.089 37.7072 11.9444C37.7072 11.9444 48.4794 11.9465 48.5277 11.9444C45.275 6.45769 38.7718 4.3498 33.3964 5.6994C30.9454 6.31412 28.4214 7.77965 26.6775 10.0013C25.8383 11.0702 25.3661 12.2145 25.1826 13.3887H19.5798L14.6584 17.3939L14.6509 17.3811L16.5761 13.377H11.5259L4.37769 28.2407H9.42788L11.924 23.0507L14.814 28.2407H21.4545L16.9216 21.0077L25.0968 14.4352C25.071 16.1379 25.5958 17.8778 26.4683 19.5294C27.5317 21.5395 30.558 24.9151 29.3936 27.6005C28.6156 29.3957 26.8997 29.6456 25.4305 29.6456C22.3131 29.6467 19.1956 29.6467 16.0792 29.6477C20.2805 36.735 29.4827 38.2282 35.5953 33.8072C37.1342 32.6947 38.6409 31.1473 39.2987 29.0873C39.3889 28.8054 39.4554 28.5236 39.5037 28.2418H43.0182L45.612 22.8465H50.1514L47.5565 28.2418H52.6067L59.7549 13.378H54.7058V13.377Z" fill="#E30613"/>
<path fill-rule="evenodd" clip-rule="evenodd" d="M24.3853 11.8708C26.8289 5.30467 34.7669 2.35127 42.9195 5.30467C36.7833 0.428428 24.5442 0.80066 17.5806 11.8708H24.3853Z" fill="black"/>
<path fill-rule="evenodd" clip-rule="evenodd" d="M40.4783 29.5498C38.0347 36.116 30.0967 39.0694 21.9441 36.116C28.0803 40.9922 40.3195 40.62 47.2831 29.5498H40.4783Z" fill="black"/>
<path d="M53.2367 33.6358C53.2367 34.2782 53.0081 34.828 52.5499 35.2832C52.0916 35.7384 51.5379 35.966 50.8886 35.966C50.2394 35.966 49.6846 35.7384 49.2242 35.2832C48.7638 34.828 48.5342 34.2782 48.5342 33.6358C48.5342 32.9924 48.7638 32.4436 49.2242 31.9884C49.6846 31.5333 50.2394 31.3057 50.8886 31.3057C51.5379 31.3057 52.0916 31.5333 52.5499 31.9884C53.0081 32.4436 53.2367 32.9924 53.2367 33.6358ZM52.9351 33.6358C52.9351 33.0626 52.7355 32.5744 52.3363 32.1703C51.9371 31.7662 51.4542 31.5641 50.8886 31.5641C50.3231 31.5641 49.8391 31.7662 49.4378 32.1703C49.0364 32.5744 48.8347 33.0626 48.8347 33.6358C48.8347 34.2091 49.0353 34.6972 49.4378 35.1003C49.8391 35.5044 50.3231 35.7065 50.8886 35.7065C51.4542 35.7065 51.936 35.5044 52.3363 35.1003C52.7355 34.6962 52.9351 34.208 52.9351 33.6358ZM52.1088 35.1003H51.7654C51.6205 35.1003 51.5229 35.0631 51.4714 34.9886L50.6579 33.8262H50.4057V35.0992H49.9786V32.2309H51.0303C51.3437 32.2309 51.5722 32.3277 51.7171 32.5213C51.8201 32.6574 51.8716 32.8137 51.8716 32.9913C51.8716 33.1934 51.804 33.37 51.6688 33.5199C51.5336 33.6699 51.3533 33.7603 51.129 33.789L51.9843 34.9759C52.0101 35.0184 52.053 35.0588 52.1088 35.1003ZM51.4359 33.0052C51.4359 32.6882 51.2256 32.5287 50.8049 32.5287H50.4057V33.5305H50.7566C51.2095 33.5305 51.4359 33.3551 51.4359 33.0052Z" fill="white"/>
<rect x="1" y="48.1533" width="63.2319" height="13.8466" rx="6.9233" fill="white"/>
<path d="M43.0752 59.7128H41.0144L44.1545 50.6982H46.6328L49.7685 59.7128H47.7077L45.4292 52.7582H45.3581L43.0752 59.7128ZM42.9464 56.1695H47.8143V57.6572H42.9464V56.1695Z" fill="black"/>
<path d="M33.4246 59.7128V50.6982H37.0132C37.7002 50.6982 38.2865 50.82 38.7721 51.0636C39.2606 51.3042 39.6322 51.6461 39.8869 52.0892C40.1445 52.5293 40.2733 53.0472 40.2733 53.6429C40.2733 54.2416 40.143 54.7566 39.8824 55.1879C39.6219 55.6163 39.2443 55.945 38.7499 56.1739C38.2583 56.4028 37.6632 56.5172 36.9644 56.5172H34.5616V54.9854H36.6535C37.0207 54.9854 37.3256 54.9356 37.5684 54.8358C37.8112 54.736 37.9918 54.5864 38.1103 54.3868C38.2317 54.1873 38.2924 53.9393 38.2924 53.6429C38.2924 53.3436 38.2317 53.0913 38.1103 52.8859C37.9918 52.6804 37.8097 52.5249 37.564 52.4193C37.3212 52.3107 37.0147 52.2564 36.6446 52.2564H35.3477V59.7128H33.4246ZM38.3368 55.6105L40.5975 59.7128H38.4745L36.2626 55.6105H38.3368Z" fill="black"/>
<path d="M26.2334 59.7128V50.6982H32.256V52.2696H28.1565V54.4176H31.8563V55.989H28.1565V59.7128H26.2334Z" fill="black"/>
<path d="M24.7696 50.6982V59.7128H23.1085L19.1511 54.0391H19.0845V59.7128H17.1614V50.6982H18.8491L22.7754 56.3675H22.8553V50.6982H24.7696Z" fill="black"/>
<path d="M15.7044 50.6982V59.7128H13.7812V50.6982H15.7044Z" fill="black"/>
<path d="M87.4587 14.1097V22.9844H86.384V14.1097H87.4587ZM96.0961 14.1097V22.9844H95.0561L90.2201 16.0164H90.1334V22.9844H89.0587V14.1097H90.0987L94.9521 21.095H95.0387V14.1097H96.0961ZM102.545 16.3284C102.493 15.8893 102.282 15.5484 101.912 15.3057C101.543 15.063 101.089 14.9417 100.552 14.9417C100.159 14.9417 99.8151 15.0053 99.5205 15.1324C99.2287 15.2595 99.0005 15.4343 98.8358 15.6567C98.674 15.8792 98.5931 16.1319 98.5931 16.415C98.5931 16.6519 98.6495 16.8556 98.7621 17.026C98.8777 17.1936 99.025 17.3337 99.2041 17.4464C99.3833 17.5562 99.571 17.6472 99.7675 17.7194C99.9639 17.7887 100.144 17.845 100.309 17.8884L101.21 18.131C101.442 18.1917 101.699 18.2755 101.982 18.3824C102.268 18.4893 102.541 18.6352 102.801 18.82C103.064 19.002 103.28 19.236 103.451 19.522C103.621 19.808 103.706 20.159 103.706 20.575C103.706 21.0546 103.581 21.4879 103.329 21.875C103.081 22.2622 102.717 22.5698 102.237 22.798C101.761 23.0263 101.182 23.1404 100.5 23.1404C99.8643 23.1404 99.3139 23.0378 98.8488 22.8327C98.3866 22.6276 98.0226 22.3416 97.7568 21.9747C97.4939 21.6078 97.3451 21.1817 97.3105 20.6964H98.4198C98.4487 21.0315 98.5614 21.3088 98.7578 21.5284C98.9571 21.745 99.2085 21.9068 99.5118 22.0137C99.818 22.1177 100.147 22.1697 100.5 22.1697C100.91 22.1697 101.278 22.1033 101.605 21.9704C101.931 21.8346 102.19 21.6468 102.38 21.407C102.571 21.1644 102.666 20.8813 102.666 20.5577C102.666 20.263 102.584 20.0233 102.419 19.8384C102.255 19.6535 102.038 19.5033 101.769 19.3877C101.501 19.2722 101.21 19.171 100.898 19.0844L99.8065 18.7724C99.1131 18.573 98.5643 18.2885 98.1598 17.9187C97.7554 17.5489 97.5531 17.065 97.5531 16.467C97.5531 15.9702 97.6875 15.5368 97.9561 15.167C98.2277 14.7944 98.5917 14.5055 99.0481 14.3004C99.5075 14.0924 100.02 13.9884 100.586 13.9884C101.158 13.9884 101.667 14.0909 102.112 14.296C102.557 14.4983 102.909 14.7756 103.169 15.128C103.432 15.4805 103.571 15.8806 103.585 16.3284H102.545ZM104.919 22.9844V14.1097H107.917C108.614 14.1097 109.183 14.2354 109.625 14.4867C110.07 14.7352 110.399 15.0717 110.613 15.4964C110.826 15.921 110.933 16.3948 110.933 16.9177C110.933 17.4406 110.826 17.9158 110.613 18.3434C110.402 18.7709 110.075 19.1118 109.633 19.366C109.191 19.6174 108.625 19.743 107.935 19.743H105.785V18.7897H107.9C108.377 18.7897 108.76 18.7074 109.048 18.5427C109.337 18.378 109.547 18.1556 109.677 17.8754C109.81 17.5923 109.876 17.273 109.876 16.9177C109.876 16.5624 109.81 16.2446 109.677 15.9644C109.547 15.6842 109.336 15.4646 109.044 15.3057C108.752 15.1439 108.365 15.063 107.883 15.063H105.993V22.9844H104.919ZM113.185 14.1097V22.9844H112.11V14.1097H113.185ZM114.785 22.9844V14.1097H117.783C118.477 14.1097 119.046 14.2282 119.491 14.465C119.936 14.699 120.265 15.0212 120.479 15.4314C120.692 15.8416 120.799 16.3082 120.799 16.831C120.799 17.3539 120.692 17.8176 120.479 18.222C120.265 18.6265 119.937 18.9443 119.495 19.1754C119.053 19.4036 118.488 19.5177 117.801 19.5177H115.374V18.547H117.766C118.24 18.547 118.621 18.4777 118.91 18.339C119.202 18.2004 119.413 18.0039 119.543 17.7497C119.676 17.4926 119.742 17.1864 119.742 16.831C119.742 16.4757 119.676 16.1652 119.543 15.8994C119.41 15.6336 119.197 15.4285 118.906 15.284C118.614 15.1367 118.228 15.063 117.749 15.063H115.859V22.9844H114.785ZM118.962 18.9977L121.146 22.9844H119.898L117.749 18.9977H118.962ZM123.11 14.1097V22.9844H122.035V14.1097H123.11ZM131.747 14.1097V22.9844H130.707L125.871 16.0164H125.785V22.9844H124.71V14.1097H125.75L130.603 21.095H130.69V14.1097H131.747ZM139.41 16.883C139.315 16.5913 139.189 16.3298 139.033 16.0987C138.88 15.8647 138.696 15.6654 138.483 15.5007C138.272 15.336 138.032 15.2104 137.763 15.1237C137.495 15.037 137.2 14.9937 136.879 14.9937C136.353 14.9937 135.875 15.1295 135.445 15.401C135.014 15.6726 134.672 16.0727 134.418 16.6014C134.164 17.13 134.037 17.7786 134.037 18.547C134.037 19.3155 134.165 19.964 134.422 20.4927C134.679 21.0214 135.027 21.4215 135.467 21.693C135.906 21.9646 136.4 22.1004 136.949 22.1004C137.457 22.1004 137.905 21.992 138.292 21.7754C138.682 21.5558 138.985 21.2467 139.202 20.848C139.421 20.4465 139.531 19.9742 139.531 19.431L139.861 19.5004H137.191V18.547H140.571V19.5004C140.571 20.2313 140.415 20.8668 140.103 21.407C139.794 21.9473 139.367 22.3662 138.821 22.6637C138.277 22.9584 137.653 23.1057 136.949 23.1057C136.163 23.1057 135.472 22.9208 134.877 22.551C134.285 22.1813 133.823 21.6555 133.491 20.9737C133.161 20.2919 132.997 19.483 132.997 18.547C132.997 17.845 133.09 17.2138 133.278 16.6534C133.469 16.09 133.738 15.6105 134.084 15.2147C134.431 14.8189 134.841 14.5156 135.315 14.3047C135.789 14.0938 136.31 13.9884 136.879 13.9884C137.347 13.9884 137.783 14.0592 138.188 14.2007C138.595 14.3394 138.958 14.5373 139.276 14.7944C139.596 15.0486 139.863 15.3534 140.077 15.7087C140.291 16.0612 140.438 16.4526 140.519 16.883H139.41ZM92.4507 32.883C92.3553 32.5913 92.2297 32.3298 92.0737 32.0987C91.9205 31.8647 91.7371 31.6654 91.5233 31.5007C91.3124 31.336 91.0727 31.2104 90.804 31.1237C90.5353 31.037 90.2407 30.9937 89.92 30.9937C89.3942 30.9937 88.9161 31.1295 88.4857 31.401C88.0552 31.6726 87.7129 32.0727 87.4587 32.6014C87.2044 33.13 87.0773 33.7786 87.0773 34.547C87.0773 35.3155 87.2059 35.964 87.463 36.4927C87.7201 37.0214 88.0682 37.4215 88.5073 37.693C88.9464 37.9646 89.4404 38.1004 89.9893 38.1004C90.4978 38.1004 90.9455 37.992 91.3327 37.7754C91.7227 37.5558 92.026 37.2467 92.2427 36.848C92.4622 36.4465 92.572 35.9742 92.572 35.431L92.9013 35.5004H90.232V34.547H93.612V35.5004C93.612 36.2313 93.456 36.8668 93.144 37.407C92.8349 37.9473 92.4073 38.3662 91.8613 38.6637C91.3182 38.9584 90.6942 39.1057 89.9893 39.1057C89.2035 39.1057 88.5131 38.9208 87.918 38.551C87.3258 38.1813 86.8635 37.6555 86.5313 36.9737C86.202 36.2919 86.0373 35.483 86.0373 34.547C86.0373 33.845 86.1312 33.2138 86.319 32.6534C86.5097 32.09 86.7783 31.6105 87.125 31.2147C87.4717 30.8189 87.8819 30.5156 88.3557 30.3047C88.8294 30.0938 89.3509 29.9884 89.92 29.9884C90.388 29.9884 90.8242 30.0592 91.2287 30.2007C91.636 30.3394 91.9985 30.5373 92.3163 30.7944C92.637 31.0486 92.9042 31.3534 93.118 31.7087C93.3318 32.0612 93.4791 32.4526 93.56 32.883H92.4507ZM94.8979 38.9844V30.1097H97.8966C98.5899 30.1097 99.159 30.2282 99.6039 30.465C100.049 30.699 100.378 31.0212 100.592 31.4314C100.806 31.8416 100.913 32.3082 100.913 32.831C100.913 33.3539 100.806 33.8176 100.592 34.222C100.378 34.6265 100.05 34.9443 99.6082 35.1754C99.1662 35.4036 98.6015 35.5177 97.9139 35.5177H95.4872V34.547H97.8792C98.353 34.547 98.7343 34.4777 99.0232 34.339C99.315 34.2004 99.5259 34.0039 99.6559 33.7497C99.7888 33.4926 99.8552 33.1864 99.8552 32.831C99.8552 32.4757 99.7888 32.1652 99.6559 31.8994C99.523 31.6336 99.3107 31.4285 99.0189 31.284C98.7271 31.1367 98.3415 31.063 97.8619 31.063H95.9726V38.9844H94.8979ZM99.0752 34.9977L101.259 38.9844H100.011L97.8619 34.9977H99.0752ZM102.149 38.9844V30.1097H107.505V31.063H103.223V34.0617H107.227V35.015H103.223V38.031H107.574V38.9844H102.149ZM108.887 38.9844V30.1097H114.243V31.063H109.962V34.0617H113.966V35.015H109.962V38.031H114.312V38.9844H108.887ZM122.663 30.1097V38.9844H121.623L116.787 32.0164H116.7V38.9844H115.625V30.1097H116.665L121.519 37.095H121.605V30.1097H122.663ZM89.1227 54.9844H86.384V46.1097H89.244C90.1049 46.1097 90.8415 46.2874 91.454 46.6427C92.0664 46.9952 92.5359 47.5022 92.8623 48.1637C93.1888 48.8224 93.352 49.611 93.352 50.5297C93.352 51.4542 93.1873 52.25 92.858 52.9174C92.5287 53.5818 92.0491 54.0932 91.4193 54.4514C90.7895 54.8067 90.024 54.9844 89.1227 54.9844ZM87.4587 54.031H89.0533C89.7871 54.031 90.3952 53.8895 90.8777 53.6064C91.3601 53.3233 91.7198 52.9203 91.9567 52.3974C92.1935 51.8745 92.312 51.2519 92.312 50.5297C92.312 49.8133 92.195 49.1965 91.961 48.6794C91.727 48.1594 91.3774 47.7607 90.9123 47.4834C90.4472 47.2032 89.868 47.063 89.1747 47.063H87.4587V54.031ZM94.6 54.9844V46.1097H99.956V47.063H95.6746V50.0617H99.6786V51.015H95.6746V54.031H100.025V54.9844H94.6ZM101.702 46.1097L104.337 53.5804H104.441L107.076 46.1097H108.202L104.944 54.9844H103.834L100.576 46.1097H101.702ZM109.03 54.9844V46.1097H114.386V47.063H110.105V50.0617H114.109V51.015H110.105V54.031H114.455V54.9844H109.03ZM115.768 54.9844V46.1097H116.843V54.031H120.968V54.9844H115.768ZM129.22 50.547C129.22 51.483 129.051 52.2919 128.713 52.9737C128.375 53.6555 127.911 54.1813 127.322 54.551C126.733 54.9208 126.06 55.1057 125.303 55.1057C124.546 55.1057 123.873 54.9208 123.283 54.551C122.694 54.1813 122.23 53.6555 121.892 52.9737C121.554 52.2919 121.385 51.483 121.385 50.547C121.385 49.611 121.554 48.8022 121.892 48.1204C122.23 47.4386 122.694 46.9128 123.283 46.543C123.873 46.1733 124.546 45.9884 125.303 45.9884C126.06 45.9884 126.733 46.1733 127.322 46.543C127.911 46.9128 128.375 47.4386 128.713 48.1204C129.051 48.8022 129.22 49.611 129.22 50.547ZM128.18 50.547C128.18 49.7786 128.051 49.13 127.794 48.6014C127.54 48.0727 127.195 47.6726 126.759 47.401C126.325 47.1295 125.84 46.9937 125.303 46.9937C124.765 46.9937 124.279 47.1295 123.842 47.401C123.409 47.6726 123.064 48.0727 122.807 48.6014C122.552 49.13 122.425 49.7786 122.425 50.547C122.425 51.3155 122.552 51.964 122.807 52.4927C123.064 53.0214 123.409 53.4215 123.842 53.693C124.279 53.9646 124.765 54.1004 125.303 54.1004C125.84 54.1004 126.325 53.9646 126.759 53.693C127.195 53.4215 127.54 53.0214 127.794 52.4927C128.051 51.964 128.18 51.3155 128.18 50.547ZM130.472 54.9844V46.1097H133.471C134.167 46.1097 134.736 46.2354 135.178 46.4867C135.623 46.7352 135.953 47.0717 136.166 47.4964C136.38 47.921 136.487 48.3948 136.487 48.9177C136.487 49.4406 136.38 49.9158 136.166 50.3434C135.955 50.7709 135.629 51.1118 135.187 51.366C134.745 51.6174 134.179 51.743 133.488 51.743H131.339V50.7897H133.454C133.93 50.7897 134.313 50.7074 134.602 50.5427C134.891 50.378 135.1 50.1556 135.23 49.8754C135.363 49.5923 135.43 49.273 135.43 48.9177C135.43 48.5624 135.363 48.2446 135.23 47.9644C135.1 47.6842 134.889 47.4646 134.598 47.3057C134.306 47.1439 133.919 47.063 133.436 47.063H131.547V54.9844H130.472ZM137.664 46.1097H138.946L141.962 53.4764H142.066L145.082 46.1097H146.365V54.9844H145.36V48.2417H145.273L142.5 54.9844H141.529L138.756 48.2417H138.669V54.9844H137.664V46.1097ZM147.965 54.9844V46.1097H153.321V47.063H149.04V50.0617H153.044V51.015H149.04V54.031H153.39V54.9844H147.965ZM161.741 46.1097V54.9844H160.701L155.865 48.0164H155.778V54.9844H154.703V46.1097H155.743L160.597 53.095H160.683V46.1097H161.741ZM162.851 47.063V46.1097H169.507V47.063H166.716V54.9844H165.642V47.063H162.851Z" fill="white"/>
</svg>
