<svg width="176" height="68" viewBox="0 0 176 68" fill="none" xmlns="http://www.w3.org/2000/svg">
<path fill-rule="evenodd" clip-rule="evenodd" d="M16.1767 12.0883C20.453 5.05187 28.1935 0.242902 36.729 0.242902C45.2472 0.242902 52.3104 5.03476 55.584 12.0883H69.8144L60.1081 33.4076H54.0569C49.7805 40.4441 42.0389 45.253 33.5034 45.253C24.9851 45.253 17.9231 40.461 14.6485 33.4076H0.417969L10.1255 12.0883H16.1767ZM36.729 1.75715C28.6368 1.75715 21.253 6.40632 17.2742 13.2245L17.0536 13.6026H11.1123L2.78378 31.8933H15.647L15.8459 32.3507C18.7871 39.11 25.4248 43.7387 33.5034 43.7387C41.5956 43.7387 48.9806 39.0895 52.9594 32.2714L53.18 31.8933H59.1212L67.4487 13.6026H54.5854L54.3864 13.1451C51.4464 6.38596 44.8077 1.75715 36.729 1.75715Z" fill="#C6C6C6"/>
<path fill-rule="evenodd" clip-rule="evenodd" d="M68.6322 12.8454H55.0887C52.0304 5.81431 45.1196 1 36.7297 1C28.3398 1 20.716 5.81548 16.6135 12.8454H10.6196L1.60156 32.6504H15.1451C18.2045 39.6815 25.1142 44.4958 33.5041 44.4958C41.894 44.4958 49.519 39.6804 53.6214 32.6504H59.6154L68.6322 12.8454Z" fill="white"/>
<path fill-rule="evenodd" clip-rule="evenodd" d="M59.9792 14.5913L57.1283 20.5164H52.1432L54.9917 14.5913H49.4456L43.1617 27.6608C42.8789 26.4145 42.3709 25.2174 41.7958 24.1289C40.6597 21.981 38.7812 19.8425 38.3793 17.2578C38.0045 14.8506 39.5095 13.1769 41.3114 13.0181C41.3114 13.0181 53.1414 13.0204 53.1944 13.0181C49.6224 6.99261 42.4805 4.67772 36.5773 6.15986C33.8856 6.83493 31.1137 8.44438 29.1986 10.8842C28.277 12.058 27.7585 13.3148 27.5569 14.6042H21.4039L15.9992 19.0027L15.991 18.9887L18.1052 14.5913H12.5591L4.70898 30.9147H10.2551L12.9963 25.2151L16.1701 30.9147H23.4628L18.4847 22.9714L27.4627 15.7534C27.4344 17.6233 28.0107 19.5341 28.9688 21.348C30.1367 23.5554 33.4601 27.2625 32.1814 30.2116C31.327 32.1831 29.4426 32.4575 27.8292 32.4575C24.4056 32.4587 20.982 32.4587 17.5596 32.4599C22.1735 40.2431 32.2793 41.8829 38.9921 37.0278C40.6821 35.8061 42.3368 34.1067 43.0592 31.8444C43.1582 31.5349 43.2312 31.2254 43.2843 30.9158H47.1439L49.9924 24.9908H54.9775L52.1279 30.9158H57.674L65.5241 14.5925H59.9792V14.5913Z" fill="#E30613"/>
<path fill-rule="evenodd" clip-rule="evenodd" d="M26.68 12.9377C29.3635 5.72672 38.081 2.4833 47.0342 5.72672C40.2955 0.371641 26.8544 0.780426 19.207 12.9377H26.68Z" fill="black"/>
<path fill-rule="evenodd" clip-rule="evenodd" d="M44.3523 32.3526C41.6688 39.5636 32.9513 42.807 23.998 39.5636C30.7368 44.9186 44.1778 44.5098 51.8252 32.3526H44.3523Z" fill="black"/>
<path d="M58.3653 36.8398C58.3653 37.5452 58.1142 38.149 57.611 38.6489C57.1078 39.1487 56.4997 39.3987 55.7868 39.3987C55.0738 39.3987 54.4645 39.1487 53.9589 38.6489C53.4534 38.149 53.2012 37.5452 53.2012 36.8398C53.2012 36.1332 53.4534 35.5305 53.9589 35.0307C54.4645 34.5308 55.0738 34.2809 55.7868 34.2809C56.4997 34.2809 57.1078 34.5308 57.611 35.0307C58.1142 35.5305 58.3653 36.1332 58.3653 36.8398ZM58.0341 36.8398C58.0341 36.2103 57.8149 35.6742 57.3765 35.2304C56.9381 34.7866 56.4078 34.5647 55.7868 34.5647C55.1657 34.5647 54.6342 34.7866 54.1934 35.2304C53.7527 35.6742 53.5311 36.2103 53.5311 36.8398C53.5311 37.4693 53.7515 38.0054 54.1934 38.448C54.6342 38.8918 55.1657 39.1137 55.7868 39.1137C56.4078 39.1137 56.9369 38.8918 57.3765 38.448C57.8149 38.0042 58.0341 37.4681 58.0341 36.8398ZM57.1267 38.448H56.7496C56.5905 38.448 56.4832 38.4071 56.4267 38.3254L55.5334 37.0488H55.2564V38.4468H54.7874V35.297H55.9423C56.2864 35.297 56.5374 35.4032 56.6965 35.6158C56.8097 35.7653 56.8662 35.937 56.8662 36.132C56.8662 36.3539 56.792 36.5478 56.6435 36.7125C56.495 36.8771 56.297 36.9764 56.0507 37.008L56.99 38.3113C57.0183 38.3581 57.0654 38.4024 57.1267 38.448ZM56.3878 36.1472C56.3878 35.7992 56.1568 35.624 55.6948 35.624H55.2564V36.7242H55.6418C56.1391 36.7242 56.3878 36.5314 56.3878 36.1472Z" fill="white"/>
<rect x="1.75" y="53.2458" width="67.9412" height="13.7063" rx="6.85315" fill="white" stroke="#C6C6C6" stroke-width="1.5"/>
<path d="M47.2066 65.1901H44.9434L48.3918 55.2903H51.1135L54.5571 65.1901H52.2939L49.7917 57.5525H49.7136L47.2066 65.1901ZM47.0651 61.2988H52.4109V62.9326H47.0651V61.2988Z" fill="black"/>
<path d="M36.6094 65.1901V55.2903H40.5505C41.3049 55.2903 41.9487 55.424 42.482 55.6915C43.0185 55.9558 43.4266 56.3312 43.7063 56.8178C43.9892 57.3012 44.1306 57.87 44.1306 58.5242C44.1306 59.1816 43.9875 59.7471 43.7014 60.2208C43.4152 60.6913 43.0006 61.0523 42.4576 61.3036C41.9178 61.555 41.2642 61.6807 40.4968 61.6807H37.858V59.9985H40.1554C40.5586 59.9985 40.8935 59.9437 41.1602 59.8341C41.4268 59.7246 41.6252 59.5602 41.7552 59.3411C41.8885 59.1219 41.9552 58.8496 41.9552 58.5242C41.9552 58.1954 41.8885 57.9183 41.7552 57.6927C41.6252 57.4671 41.4252 57.2963 41.1553 57.1803C40.8886 57.0611 40.5521 57.0015 40.1456 57.0015H38.7214V65.1901H36.6094ZM42.004 60.6849L44.4867 65.1901H42.1552L39.7262 60.6849H42.004Z" fill="black"/>
<path d="M28.7109 65.1901V55.2903H35.3249V57.016H30.8229V59.3749H34.886V61.1006H30.8229V65.1901H28.7109Z" fill="black"/>
<path d="M27.1034 55.2903V65.1901H25.2791L20.9332 58.9592H20.86V65.1901H18.748V55.2903H20.6015L24.9133 61.5163H25.0011V55.2903H27.1034Z" fill="black"/>
<path d="M17.1491 55.2903V65.1901H15.0371V55.2903H17.1491Z" fill="black"/>
<path d="M85.2756 9.27273V18H83.9588V9.27273H85.2756ZM94.2372 9.27273V18H93.027L88.5909 11.5994H88.5099V18H87.1932V9.27273H88.4119L92.8523 15.6818H92.9332V9.27273H94.2372ZM100.918 11.5653C100.873 11.1619 100.685 10.8494 100.355 10.6278C100.026 10.4034 99.6112 10.2912 99.1112 10.2912C98.7532 10.2912 98.4435 10.348 98.1822 10.4616C97.9208 10.5724 97.7177 10.7259 97.5728 10.9219C97.4308 11.1151 97.3597 11.3352 97.3597 11.5824C97.3597 11.7898 97.408 11.9687 97.5046 12.1193C97.604 12.2699 97.7333 12.3963 97.8924 12.4986C98.0543 12.598 98.2276 12.6818 98.4123 12.75C98.5969 12.8153 98.7745 12.8693 98.945 12.9119L99.7972 13.1335C100.076 13.2017 100.361 13.294 100.654 13.4105C100.946 13.527 101.218 13.6804 101.468 13.8707C101.718 14.0611 101.919 14.2969 102.073 14.5781C102.229 14.8594 102.307 15.196 102.307 15.5881C102.307 16.0824 102.179 16.5213 101.924 16.9048C101.671 17.2884 101.303 17.5909 100.82 17.8125C100.34 18.0341 99.7589 18.1449 99.0771 18.1449C98.4237 18.1449 97.8583 18.0412 97.381 17.8338C96.9038 17.6264 96.5302 17.3324 96.2603 16.9517C95.9904 16.5682 95.8413 16.1136 95.8129 15.5881H97.1339C97.1594 15.9034 97.2617 16.1662 97.4407 16.3764C97.6225 16.5838 97.854 16.7386 98.1353 16.8409C98.4194 16.9403 98.7305 16.9901 99.0685 16.9901C99.4407 16.9901 99.7717 16.9318 100.061 16.8153C100.354 16.696 100.584 16.5312 100.752 16.321C100.919 16.108 101.003 15.8594 101.003 15.5753C101.003 15.3168 100.929 15.1051 100.782 14.9403C100.637 14.7756 100.439 14.6392 100.189 14.5312C99.9421 14.4233 99.6623 14.3281 99.3498 14.2457L98.3185 13.9645C97.6197 13.7741 97.0657 13.4943 96.6566 13.125C96.2504 12.7557 96.0472 12.267 96.0472 11.6591C96.0472 11.1562 96.1836 10.7173 96.4563 10.3423C96.729 9.96733 97.0984 9.67614 97.5643 9.46875C98.0302 9.25852 98.5558 9.15341 99.141 9.15341C99.7319 9.15341 100.253 9.2571 100.705 9.46449C101.159 9.67188 101.517 9.95739 101.779 10.321C102.04 10.6818 102.176 11.0966 102.188 11.5653H100.918ZM103.881 18V9.27273H106.991C107.67 9.27273 108.233 9.39631 108.679 9.64347C109.125 9.89062 109.459 10.2287 109.68 10.6577C109.902 11.0838 110.013 11.5639 110.013 12.098C110.013 12.6349 109.901 13.1179 109.676 13.5469C109.455 13.973 109.119 14.3111 108.67 14.5611C108.224 14.8082 107.663 14.9318 106.987 14.9318H104.848V13.8153H106.868C107.297 13.8153 107.645 13.7415 107.912 13.5938C108.179 13.4432 108.375 13.2386 108.5 12.9801C108.625 12.7216 108.688 12.4276 108.688 12.098C108.688 11.7685 108.625 11.4759 108.5 11.2202C108.375 10.9645 108.178 10.7642 107.908 10.6193C107.641 10.4744 107.288 10.402 106.851 10.402H105.197V18H103.881ZM112.873 9.27273V18H111.556V9.27273H112.873ZM114.791 18V9.27273H117.902C118.578 9.27273 119.139 9.3892 119.585 9.62216C120.034 9.85511 120.369 10.1776 120.591 10.5895C120.812 10.9986 120.923 11.4716 120.923 12.0085C120.923 12.5426 120.811 13.0128 120.586 13.419C120.365 13.8224 120.029 14.1364 119.581 14.3608C119.135 14.5852 118.574 14.6974 117.897 14.6974H115.541V13.5639H117.778C118.204 13.5639 118.551 13.5028 118.818 13.3807C119.088 13.2585 119.285 13.081 119.41 12.848C119.535 12.6151 119.598 12.3352 119.598 12.0085C119.598 11.679 119.534 11.3935 119.406 11.152C119.281 10.9105 119.083 10.7259 118.814 10.598C118.547 10.4673 118.196 10.402 117.761 10.402H116.108V18H114.791ZM119.099 14.0625L121.255 18H119.755L117.642 14.0625H119.099ZM123.842 9.27273V18H122.525V9.27273H123.842ZM132.804 9.27273V18H131.593L127.157 11.5994H127.076V18H125.76V9.27273H126.978L131.419 15.6818H131.5V9.27273H132.804ZM140.631 12.0298C140.548 11.7713 140.438 11.5398 140.298 11.3352C140.162 11.1278 139.999 10.9517 139.808 10.8068C139.618 10.6591 139.401 10.5469 139.156 10.4702C138.915 10.3935 138.649 10.3551 138.359 10.3551C137.868 10.3551 137.425 10.4815 137.03 10.7344C136.635 10.9872 136.322 11.358 136.092 11.8466C135.865 12.3324 135.751 12.9276 135.751 13.6321C135.751 14.3395 135.866 14.9375 136.097 15.4261C136.327 15.9148 136.642 16.2855 137.043 16.5384C137.443 16.7912 137.899 16.9176 138.411 16.9176C138.885 16.9176 139.298 16.821 139.651 16.6278C140.006 16.4347 140.28 16.1619 140.473 15.8097C140.669 15.4545 140.767 15.0369 140.767 14.5568L141.108 14.6207H138.611V13.5341H142.041V14.527C142.041 15.2599 141.885 15.8963 141.572 16.4361C141.263 16.973 140.834 17.3878 140.286 17.6804C139.74 17.973 139.115 18.1193 138.411 18.1193C137.621 18.1193 136.928 17.9375 136.331 17.5739C135.737 17.2102 135.274 16.6946 134.942 16.027C134.609 15.3565 134.443 14.5611 134.443 13.6406C134.443 12.9446 134.54 12.3196 134.733 11.7656C134.926 11.2116 135.197 10.7415 135.547 10.3551C135.899 9.96591 136.312 9.66903 136.787 9.46449C137.264 9.2571 137.786 9.15341 138.351 9.15341C138.822 9.15341 139.261 9.22301 139.668 9.36222C140.077 9.50142 140.44 9.69886 140.759 9.95455C141.08 10.2102 141.345 10.5142 141.555 10.8665C141.766 11.2159 141.908 11.6037 141.982 12.0298H140.631ZM89.8651 32.0298C89.7827 31.7713 89.6719 31.5398 89.5327 31.3352C89.3963 31.1278 89.233 30.9517 89.0426 30.8068C88.8523 30.6591 88.6349 30.5469 88.3906 30.4702C88.1491 30.3935 87.8835 30.3551 87.5938 30.3551C87.1023 30.3551 86.6591 30.4815 86.2642 30.7344C85.8693 30.9872 85.5568 31.358 85.3267 31.8466C85.0994 32.3324 84.9858 32.9276 84.9858 33.6321C84.9858 34.3395 85.1009 34.9375 85.331 35.4261C85.5611 35.9148 85.8764 36.2855 86.277 36.5384C86.6776 36.7912 87.1335 36.9176 87.6449 36.9176C88.1193 36.9176 88.5327 36.821 88.8849 36.6278C89.2401 36.4347 89.5142 36.1619 89.7074 35.8097C89.9034 35.4545 90.0014 35.0369 90.0014 34.5568L90.3423 34.6207H87.8452V33.5341H91.2756V34.527C91.2756 35.2599 91.1193 35.8963 90.8068 36.4361C90.4972 36.973 90.0682 37.3878 89.5199 37.6804C88.9744 37.973 88.3494 38.1193 87.6449 38.1193C86.8551 38.1193 86.1619 37.9375 85.5653 37.5739C84.9716 37.2102 84.5085 36.6946 84.1761 36.027C83.8438 35.3565 83.6776 34.5611 83.6776 33.6406C83.6776 32.9446 83.7741 32.3196 83.9673 31.7656C84.1605 31.2116 84.4318 30.7415 84.7812 30.3551C85.1335 29.9659 85.5469 29.669 86.0213 29.4645C86.4986 29.2571 87.0199 29.1534 87.5852 29.1534C88.0568 29.1534 88.4957 29.223 88.902 29.3622C89.3111 29.5014 89.6747 29.6989 89.9929 29.9545C90.3139 30.2102 90.5795 30.5142 90.7898 30.8665C91 31.2159 91.142 31.6037 91.2159 32.0298H89.8651ZM92.9471 38V29.2727H96.0579C96.734 29.2727 97.2951 29.3892 97.7411 29.6222C98.19 29.8551 98.5252 30.1776 98.7468 30.5895C98.9684 30.9986 99.0792 31.4716 99.0792 32.0085C99.0792 32.5426 98.967 33.0128 98.7425 33.419C98.521 33.8224 98.1857 34.1364 97.7369 34.3608C97.2908 34.5852 96.7298 34.6974 96.0536 34.6974H93.6971V33.5639H95.9343C96.3604 33.5639 96.707 33.5028 96.9741 33.3807C97.244 33.2585 97.4414 33.081 97.5664 32.848C97.6914 32.6151 97.7539 32.3352 97.7539 32.0085C97.7539 31.679 97.69 31.3935 97.5621 31.152C97.4371 30.9105 97.2397 30.7259 96.9698 30.598C96.7028 30.4673 96.3519 30.402 95.9173 30.402H94.2638V38H92.9471ZM97.2553 34.0625L99.4116 38H97.9116L95.7979 34.0625H97.2553ZM100.681 38V29.2727H106.153V30.4062H101.998V33.0653H105.868V34.1946H101.998V36.8665H106.204V38H100.681ZM107.912 38V29.2727H113.384V30.4062H109.229V33.0653H113.098V34.1946H109.229V36.8665H113.435V38H107.912ZM122.186 29.2727V38H120.976L116.54 31.5994H116.459V38H115.142V29.2727H116.361L120.801 35.6818H120.882V29.2727H122.186ZM86.7841 58H83.9588V49.2727H86.8736C87.7287 49.2727 88.4631 49.4474 89.0767 49.7969C89.6903 50.1435 90.1605 50.642 90.4872 51.2926C90.8168 51.9403 90.9815 52.7173 90.9815 53.6236C90.9815 54.5327 90.8153 55.3139 90.483 55.9673C90.1534 56.6207 89.6761 57.1236 89.0511 57.4759C88.4261 57.8253 87.6705 58 86.7841 58ZM85.2756 56.8494H86.7116C87.3764 56.8494 87.929 56.7244 88.3693 56.4744C88.8097 56.2216 89.1392 55.8565 89.358 55.3793C89.5767 54.8991 89.6861 54.3139 89.6861 53.6236C89.6861 52.9389 89.5767 52.358 89.358 51.8807C89.142 51.4034 88.8196 51.0412 88.3906 50.794C87.9616 50.5469 87.429 50.4233 86.7926 50.4233H85.2756V56.8494ZM92.619 58V49.2727H98.0906V50.4062H93.9357V53.0653H97.805V54.1946H93.9357V56.8665H98.1417V58H92.619ZM100.612 49.2727L103.041 56.3807H103.139L105.568 49.2727H106.991L103.851 58H102.33L99.1889 49.2727H100.612ZM108.252 58V49.2727H113.723V50.4062H109.569V53.0653H113.438V54.1946H109.569V56.8665H113.775V58H108.252ZM115.482 58V49.2727H116.799V56.8665H120.754V58H115.482ZM129.497 53.6364C129.497 54.5682 129.326 55.3693 128.985 56.0398C128.645 56.7074 128.177 57.2216 127.583 57.5824C126.993 57.9403 126.321 58.1193 125.568 58.1193C124.812 58.1193 124.137 57.9403 123.544 57.5824C122.953 57.2216 122.487 56.706 122.146 56.0355C121.805 55.3651 121.635 54.5653 121.635 53.6364C121.635 52.7045 121.805 51.9048 122.146 51.2372C122.487 50.5668 122.953 50.0526 123.544 49.6946C124.137 49.3338 124.812 49.1534 125.568 49.1534C126.321 49.1534 126.993 49.3338 127.583 49.6946C128.177 50.0526 128.645 50.5668 128.985 51.2372C129.326 51.9048 129.497 52.7045 129.497 53.6364ZM128.193 53.6364C128.193 52.9261 128.078 52.3281 127.848 51.8423C127.62 51.3537 127.308 50.9844 126.91 50.7344C126.515 50.4815 126.068 50.3551 125.568 50.3551C125.065 50.3551 124.616 50.4815 124.221 50.7344C123.826 50.9844 123.514 51.3537 123.284 51.8423C123.056 52.3281 122.943 52.9261 122.943 53.6364C122.943 54.3466 123.056 54.946 123.284 55.4347C123.514 55.9205 123.826 56.2898 124.221 56.5426C124.616 56.7926 125.065 56.9176 125.568 56.9176C126.068 56.9176 126.515 56.7926 126.91 56.5426C127.308 56.2898 127.62 55.9205 127.848 55.4347C128.078 54.946 128.193 54.3466 128.193 53.6364ZM131.138 58V49.2727H134.249C134.928 49.2727 135.491 49.3963 135.937 49.6435C136.383 49.8906 136.717 50.2287 136.938 50.6577C137.16 51.0838 137.271 51.5639 137.271 52.098C137.271 52.6349 137.158 53.1179 136.934 53.5469C136.712 53.973 136.377 54.3111 135.928 54.5611C135.482 54.8082 134.921 54.9318 134.245 54.9318H132.106V53.8153H134.126C134.555 53.8153 134.903 53.7415 135.17 53.5938C135.437 53.4432 135.633 53.2386 135.758 52.9801C135.883 52.7216 135.945 52.4276 135.945 52.098C135.945 51.7685 135.883 51.4759 135.758 51.2202C135.633 50.9645 135.435 50.7642 135.165 50.6193C134.898 50.4744 134.546 50.402 134.109 50.402H132.455V58H131.138ZM138.814 49.2727H140.412L143.191 56.0568H143.293L146.071 49.2727H147.669V58H146.417V51.6847H146.336L143.762 57.9872H142.722L140.148 51.6804H140.067V58H138.814V49.2727ZM149.584 58V49.2727H155.055V50.4062H150.901V53.0653H154.77V54.1946H150.901V56.8665H155.107V58H149.584ZM163.858 49.2727V58H162.648L158.212 51.5994H158.131V58H156.814V49.2727H158.033L162.473 55.6818H162.554V49.2727H163.858ZM165.349 50.4062V49.2727H172.103V50.4062H169.38V58H168.067V50.4062H165.349Z" fill="white"/>
</svg>
