<svg width="13" height="12" viewBox="0 0 13 12" fill="none" xmlns="http://www.w3.org/2000/svg">
<path d="M8.16367 9.75L11.9137 6L8.09578 6.00993L11.8571 6L8.16367 9.75Z" fill="black"/>
<path d="M11.9137 6L9.41367 3.5L8.16367 2.25L11.8866 6L8.09578 6.00993L11.9137 6Z" fill="black"/>
<path d="M1 6L8.09578 6.00993M11.9137 6L9.41367 3.5L8.16367 2.25M11.9137 6L8.16367 9.75M11.9137 6L8.09578 6.00993M6.91367 1L8.16367 2.25M6.91367 11L8.16367 9.75M8.16367 2.25L11.8866 6L8.09578 6.00993M8.16367 9.75L11.8571 6L8.09578 6.00993" stroke="black" stroke-width="1.22222" stroke-linecap="round" stroke-linejoin="round"/>
</svg>
