<svg width="40" height="40" viewBox="0 0 40 40" fill="none" xmlns="http://www.w3.org/2000/svg">
<path d="M35.9265 11.9946C35.7371 11.2887 35.3653 10.6451 34.8486 10.1284C34.3318 9.6116 33.6882 9.23984 32.9824 9.0504C31.054 8.3054 12.3724 7.9404 6.95238 9.07123C6.24644 9.26075 5.60278 9.63263 5.086 10.1496C4.56923 10.6665 4.19753 11.3102 4.00821 12.0162C3.13738 15.8354 3.07155 24.0921 4.02988 27.9971C4.21932 28.7029 4.59108 29.3465 5.10784 29.8633C5.62461 30.38 6.26821 30.7518 6.97405 30.9412C10.7932 31.8204 28.9499 31.9437 33.004 30.9412C33.7099 30.7518 34.3535 30.38 34.8702 29.8633C35.387 29.3465 35.7588 28.7029 35.9482 27.9971C36.8765 23.8362 36.9424 16.0912 35.9265 11.9946Z" stroke="#6F6F70" stroke-width="1.5" stroke-linecap="round" stroke-linejoin="round"/>
<path d="M25.4724 19.9925L16.7666 15V24.985L25.4724 19.9925Z" stroke="#6F6F70" stroke-width="1.5" stroke-linecap="round" stroke-linejoin="round"/>
</svg>
