<svg width="40" height="40" viewBox="0 0 40 40" fill="none" xmlns="http://www.w3.org/2000/svg">
<path d="M26.5903 5.71094H13.4086C9.15529 5.71094 5.70801 9.15883 5.70801 13.4122V26.5926C5.70801 30.8459 9.1559 34.2938 13.4092 34.2938H26.5897C30.843 34.2938 34.2909 30.8459 34.2909 26.5926V13.4122C34.2909 9.15883 30.8436 5.71094 26.5903 5.71094Z" stroke="#6F6F70" stroke-width="1.5" stroke-miterlimit="10"/>
<path d="M20 26.9005C23.8105 26.9005 26.8995 23.8115 26.8995 20.001C26.8995 16.1905 23.8105 13.1016 20 13.1016C16.1896 13.1016 13.1006 16.1905 13.1006 20.001C13.1006 23.8115 16.1896 26.9005 20 26.9005Z" stroke="#6F6F70" stroke-width="1.5" stroke-miterlimit="10"/>
<path d="M28.3777 13.0972C29.1941 13.0972 29.856 12.4353 29.856 11.6189C29.856 10.8025 29.1941 10.1406 28.3777 10.1406C27.5613 10.1406 26.8994 10.8025 26.8994 11.6189C26.8994 12.4353 27.5613 13.0972 28.3777 13.0972Z" fill="#6F6F70"/>
</svg>
