<svg width="40" height="40" viewBox="0 0 40 40" fill="none" xmlns="http://www.w3.org/2000/svg">
<path d="M6.82757 13.2641C8.01672 17.9015 10.4301 22.1343 13.8154 25.5195C17.2007 28.9048 21.4334 31.3182 26.0709 32.5074C29.6392 33.4157 32.6709 30.3474 32.6709 26.6641V24.9974C32.6709 24.0774 31.9226 23.3391 31.0076 23.2474C29.4902 23.0966 28.0008 22.7382 26.5809 22.1824L24.0476 24.7157C19.9228 22.7384 16.5966 19.4122 14.6192 15.2874L17.1526 12.7541C16.5962 11.3343 16.2373 9.8448 16.0859 8.3274C15.9959 7.41073 15.2576 6.66406 14.3376 6.66406H12.6709C8.98757 6.66406 5.91923 9.69573 6.82757 13.2641Z" stroke="black" stroke-width="1.5" stroke-linecap="round" stroke-linejoin="round"/>
</svg>
